<?xml version="1.0" encoding="UTF-8"?>
<svg width="29px" height="29px" viewBox="0 0 29 29" version="1.1" xmlns="http://www.w3.org/2000/svg" xmlns:xlink="http://www.w3.org/1999/xlink">
    <!-- Generator: Sketch 50 (54983) - http://www.bohemiancoding.com/sketch -->
    <title>Shape</title>
    <desc>Created with Sketch.</desc>
    <defs></defs>
    <g id="Page-1" stroke="none" stroke-width="1" fill="none" fill-rule="evenodd">
        <g id="sheryl-mccorry-home-03" transform="translate(-659.000000, -1088.000000)" fill="#000000" fill-rule="nonzero">
            <g id="Group-6" transform="translate(637.000000, 769.000000)">
                <g id="Group-3" transform="translate(0.000000, 284.000000)">
                    <g id="if_logo-amazon_350958">
                        <g id="Group-8" transform="translate(22.000000, 35.000000)">
                            <path d="M15.8610095,7.46 C15.8610095,6.574 15.9240095,5.562 15.4190095,4.803 C14.9770095,4.171 14.1540095,3.854 13.3970095,3.854 L13.1420095,3.854 C11.8780095,3.981 10.7410095,4.677 10.4240095,6.069 C10.3600095,6.383 10.1730095,6.701 9.7910095,6.762 L6.2510095,6.321 C5.9970095,6.258 5.6170095,6.07 5.7440095,5.563 C6.5030095,1.579 9.9190095,0.186 13.1410095,4.79616347e-14 L13.9010095,4.79616347e-14 C15.6720095,4.79616347e-14 17.9490095,0.507 19.4020095,1.833 C21.1720095,3.476 20.9820095,5.688 20.9820095,8.092 L20.9820095,13.782 C20.9820095,15.49 21.6790095,16.249 22.3730095,17.136 C22.5640095,17.45 22.6280095,17.83 22.3110095,18.083 C21.6150095,18.714 20.2870095,19.853 19.5270095,20.486 C19.2750095,20.674 18.9590095,20.674 18.6430095,20.549 C17.4420095,19.538 17.2510095,19.095 16.5570095,18.145 C15.3550095,19.412 14.3430095,20.107 13.1410095,20.487 C12.3850095,20.675 11.5610095,20.802 10.5500095,20.802 C7.5140095,20.802 5.1110095,18.906 5.1110095,15.174 C5.1110095,12.202 6.6920095,10.179 9.0320095,9.231 C10.2320095,8.661 11.6870095,8.41 13.1410095,8.218 C14.0910095,8.091 15.0390095,8.029 15.8610095,7.967 L15.8610095,7.46 Z M13.1410095,11.127 C11.6250095,11.569 10.4230095,12.519 10.4230095,14.542 C10.4230095,16.122 11.2460095,17.198 12.6360095,17.198 C12.8260095,17.198 13.0160095,17.135 13.1420095,17.135 C13.9640095,16.942 14.7240095,16.372 15.1660095,15.489 C15.9240095,14.223 15.8610095,13.087 15.8600095,11.633 L15.8600095,10.873 C14.9130095,10.874 13.9650095,10.938 13.1410095,11.127 Z M24.9950095,24.724 C24.6260095,25.019 24.2340095,25.286 23.8430095,25.518 C20.8380095,27.409 16.9860095,28.558 13.5820095,28.635 C13.4750095,28.638 13.3690095,28.64 13.2650095,28.64 C7.9140095,28.638 3.9340095,25.708 0.302009501,22.556 C0.127009501,22.416 -0.000990499473,22.202 9.50052732e-06,21.966 C-0.000990499473,21.786 0.0770095005,21.609 0.207009501,21.485 C0.337009501,21.364 0.515009501,21.3 0.689009501,21.3 C0.826009501,21.3 0.962009501,21.337 1.0980095,21.407 C4.9680095,23.555 8.8020095,25.735 13.5000095,25.733 C13.6080095,25.733 13.7190095,25.733 13.8280095,25.729 C16.8160095,25.665 20.0460095,24.934 23.1200095,23.687 L23.4040095,23.571 L23.6220095,23.481 C23.7690095,23.418 23.9260095,23.347 24.0810095,23.286 C24.2170095,23.222 24.3630095,23.188 24.5060095,23.189 C24.9560095,23.189 25.3730095,23.521 25.3800095,24.012 C25.3820095,24.288 25.2240095,24.553 24.9950095,24.724 Z M26.7530095,26.023 C26.6040095,26.139 26.4320095,26.219 26.2290095,26.221 C26.0870095,26.221 25.9260095,26.176 25.8020095,26.057 C25.6740095,25.939 25.6140095,25.761 25.6170095,25.614 C25.6170095,25.512 25.6380095,25.421 25.6710095,25.336 C25.8110095,24.97 26.0200095,24.419 26.1920095,23.869 C26.3680095,23.321 26.4980095,22.759 26.4950095,22.455 C26.4960095,22.375 26.4860095,22.319 26.4790095,22.297 C26.4730095,22.294 26.4650095,22.29 26.4560095,22.284 C26.4220095,22.268 26.3630095,22.247 26.2840095,22.231 C26.1250095,22.196 25.8950095,22.178 25.6380095,22.179 C25.2760095,22.179 24.8570095,22.212 24.4630095,22.254 C24.0040095,22.32 23.6110095,22.358 23.3420095,22.415 L23.3210095,22.419 L23.2950095,22.421 C23.2690095,22.426 23.2380095,22.427 23.2060095,22.427 C23.0690095,22.427 22.9140095,22.392 22.7810095,22.284 C22.6460095,22.176 22.5660095,21.993 22.5710095,21.835 C22.5790095,21.544 22.7400095,21.355 22.9300095,21.21 C23.2390095,20.987 23.5720095,20.798 23.9360095,20.647 L24.2470095,20.532 L24.8090095,20.342 L24.8100095,20.379 C25.3560095,20.26 25.9030095,20.213 26.3960095,20.213 C27.0840095,20.215 27.6550095,20.295 28.0460095,20.446 C28.1780095,20.505 28.2990095,20.556 28.4260095,20.695 L28.4410095,20.713 L28.4540095,20.731 C28.5780095,20.921 28.6420095,21.147 28.6530095,21.448 L28.6590095,21.628 C28.6380095,22.758 28.1510095,24.765 26.7530095,26.023 Z" id="Shape"></path>
                        </g>
                    </g>
                </g>
            </g>
        </g>
    </g>
</svg>