<?xml version="1.0" encoding="UTF-8"?>
<svg width="792px" height="82px" viewBox="0 0 792 82" version="1.1" xmlns="http://www.w3.org/2000/svg" xmlns:xlink="http://www.w3.org/1999/xlink">
    <!-- Generator: Sketch 50 (54983) - http://www.bohemiancoding.com/sketch -->
    <title>sheryl</title>
    <desc>Created with Sketch.</desc>
    <defs>
        <path d="M43.8674432,43.2333718 L43.8674432,43.3316264 C43.8674432,54.7291598 33.0594374,62.7860368 13.9980454,62.7860368 C9.96960692,62.7860368 5.35164082,62.491273 3.19003967,61.7052362 C2.69876668,61.508727 2.40400288,61.3122178 2.30574829,60.7226902 L0.831929318,47.3600649 C0.733674721,47.0653011 1.8144753,46.3775189 2.10923909,46.3775189 C2.30574829,46.3775189 2.40400288,46.4757735 2.50225748,46.6722827 C4.36909484,50.0129391 6.13767761,53.5501046 8.00451497,56.6942517 C8.69229715,57.7750523 9.18357014,58.2663253 10.3626253,58.9541075 C11.9346989,60.034908 14.3910638,60.526181 17.043938,60.526181 C25.4938334,60.526181 31.8803823,56.3994879 31.8803823,50.0129391 C31.8803823,44.1176632 27.6554345,40.5804977 17.535211,36.7485683 C7.12022358,32.8183844 1.9127299,28.0039091 1.9127299,20.5365597 C1.9127299,10.2198269 14.0963,0.689130905 30.4065633,0.689130905 C34.4350018,0.689130905 38.3651857,1.18040389 40.1337685,2.06469528 C40.6250415,2.26120447 40.8215507,2.45771367 40.8215507,2.94898666 L42.0006058,15.7220844 C42.0006058,16.0168482 41.1163145,16.6063758 40.7232961,16.6063758 C40.5267869,16.6063758 40.4285323,16.6063758 40.3302777,16.4098666 C38.4634403,12.872701 36.596603,9.33553552 34.631511,5.89662459 C34.2384926,5.20884241 33.8454742,4.71756942 32.7646736,4.12804183 C31.4873639,3.44025965 29.9152903,2.94898666 27.4589254,2.94898666 C20.4828489,2.94898666 14.4893184,7.46869816 14.4893184,13.6587378 C14.4893184,18.9644861 18.2229931,21.9121241 26.574634,26.0388172 C35.8105662,30.2637649 43.8674432,34.6852218 43.8674432,43.2333718 Z" id="path-1"></path>
        <filter x="-37.2%" y="-22.5%" width="174.3%" height="151.5%" filterUnits="objectBoundingBox" id="filter-2">
            <feOffset dx="0" dy="2" in="SourceAlpha" result="shadowOffsetOuter1"></feOffset>
            <feGaussianBlur stdDeviation="5" in="shadowOffsetOuter1" result="shadowBlurOuter1"></feGaussianBlur>
            <feColorMatrix values="0 0 0 0 0   0 0 0 0 0   0 0 0 0 0  0 0 0 0.69 0" type="matrix" in="shadowBlurOuter1"></feColorMatrix>
        </filter>
        <path d="M50.2559394,1.47516769 L75.9003895,1.47516769 C76.0968987,1.47516769 76.0968987,1.57342229 76.0968987,1.67167688 C76.0968987,2.06469528 75.9986441,3.14549585 75.6056257,3.14549585 L71.6754418,3.93153264 C70.889405,4.12804183 70.4963866,4.52106022 70.4963866,5.30709701 C70.1033682,11.3988821 69.7103498,25.9405626 69.7103498,27.7091453 C69.8086044,28.9864551 70.2998774,29.0847097 71.2824234,29.1829643 C75.9003895,29.3794735 88.5752326,29.6742373 92.9966895,29.6742373 C93.0949441,26.7265994 92.8001803,7.27218897 92.8001803,5.79837 C92.8001803,4.71756942 92.5054165,4.12804183 91.7193797,3.93153264 L87.8874504,3.14549585 C87.494432,3.04724125 87.2979228,2.35945907 87.2979228,1.67167688 C87.2979228,1.57342229 87.2979228,1.47516769 87.5926866,1.47516769 L112.844118,1.47516769 C113.040627,1.47516769 113.138882,1.57342229 113.138882,1.76993148 C113.138882,2.16294987 112.942373,3.04724125 112.647609,3.14549585 L108.913934,3.93153264 C108.324407,4.02978723 108.029643,4.32455103 107.931388,5.20884241 C107.636625,9.23728092 106.948842,27.7091453 106.850588,32.1306022 C106.654079,36.8468229 106.359315,55.6134511 106.26106,58.2663253 C106.26106,59.2488713 106.457569,59.5436351 106.850588,59.7401442 L111.763318,60.7226902 C111.959827,60.8209448 112.254591,61.4104724 112.254591,61.9017454 C112.254591,62.0982546 112.254591,62.1965092 112.058082,62.1965092 C109.89648,62.0982546 105.376769,62 99.972766,62 C94.2739993,62 88.6734872,62.0982546 87.003159,62.1965092 C86.7083952,62.1965092 86.7083952,62.0982546 86.7083952,61.9017454 C86.7083952,61.508727 87.003159,60.8209448 87.2979228,60.7226902 L92.2106527,59.7401442 C92.8001803,59.5436351 93.1931987,59.4453805 93.1931987,58.4628345 C93.1931987,54.925669 93.0949441,33.6044212 92.9966895,31.5410746 C88.476978,31.7375838 75.6056257,32.2288568 70.889405,32.5236206 C70.0051136,32.6218752 69.6120952,33.1131482 69.6120952,33.8009304 C69.415586,39.0084241 69.2190768,54.925669 69.2190768,58.6593437 C69.2190768,59.4453805 69.7103498,59.7401442 70.398132,59.8383988 L74.5248251,60.7226902 C74.9178435,60.8209448 75.2126073,61.4104724 75.2126073,61.9017454 C75.2126073,62.0982546 75.2126073,62.1965092 74.9178435,62.1965092 C72.5597331,62.0982546 68.1382762,62 62.5377642,62 C57.4285251,62 53.301832,62.0982546 50.6489578,62.1965092 C50.354194,62.1965092 50.354194,62.0982546 50.354194,61.9017454 C50.354194,61.508727 50.4524486,60.8209448 50.7472124,60.7226902 L55.1686693,59.7401442 C55.8564515,59.6418897 56.1512153,59.3471259 56.1512153,58.2663253 C56.1512153,54.3361414 55.9547061,35.864277 55.8564515,32.1306022 C55.8564515,28.3969275 55.4634331,7.95997115 55.4634331,5.7001154 C55.4634331,4.61931482 55.0704147,4.12804183 54.4808871,4.02978723 L50.4524486,3.14549585 C50.1576848,3.04724125 49.9611756,2.26120447 49.9611756,1.76993148 C49.9611756,1.57342229 49.9611756,1.47516769 50.2559394,1.47516769 Z" id="path-3"></path>
        <filter x="-25.3%" y="-23.1%" width="150.7%" height="152.7%" filterUnits="objectBoundingBox" id="filter-4">
            <feOffset dx="0" dy="2" in="SourceAlpha" result="shadowOffsetOuter1"></feOffset>
            <feGaussianBlur stdDeviation="5" in="shadowOffsetOuter1" result="shadowBlurOuter1"></feGaussianBlur>
            <feColorMatrix values="0 0 0 0 0   0 0 0 0 0   0 0 0 0 0  0 0 0 0.69 0" type="matrix" in="shadowBlurOuter1"></feColorMatrix>
        </filter>
        <path d="M165.518622,49.6199207 L162.964003,62 C162.865748,62.2947638 162.669239,62.491273 162.177966,62.491273 C161.490184,62.491273 159.230328,62.3930184 154.317598,62.1965092 C149.404868,62.0982546 141.937519,62 130.736495,62 C126.904565,62 121.991836,62.0982546 118.749434,62.1965092 C118.45467,62.1965092 118.45467,62.0982546 118.45467,62 C118.45467,61.6069816 118.651179,60.9191994 118.945943,60.8209448 L123.465655,59.8383988 C124.153437,59.6418897 124.546455,59.3471259 124.546455,58.2663253 C124.64471,55.3186873 124.448201,35.373004 124.448201,30.9515471 C124.349946,27.1196177 124.153437,8.74600793 123.956928,5.5036062 C123.956928,4.32455103 123.563909,3.93153264 122.974382,3.73502344 L118.945943,2.94898666 C118.749434,2.94898666 118.45467,2.26120447 118.45467,1.57342229 C118.45467,1.47516769 118.45467,1.37691309 118.651179,1.37691309 C121.00929,1.37691309 123.269145,1.47516769 125.332492,1.47516769 C127.395838,1.47516769 129.262676,1.47516769 130.834749,1.47516769 C152.745525,1.47516769 160.311129,1.18040389 161.490184,1.18040389 C161.883202,1.18040389 162.079712,1.37691309 162.079712,1.76993148 L162.767494,14.6412838 C162.767494,14.9360476 161.883202,15.4273206 161.588439,15.4273206 C161.490184,15.4273206 161.391929,15.4273206 161.293675,15.2308114 C159.91811,12.1849189 158.542546,9.23728092 157.068727,6.09313379 C156.577454,5.20884241 155.791417,4.91407862 154.612362,4.71756942 C150.28916,3.83327804 141.74101,3.14549585 140.267191,3.14549585 C139.284645,3.24375045 139.18639,3.53851424 139.18639,4.22629643 C138.695117,10.2198269 138.10559,25.842308 138.203844,29.0847097 C144.983411,29.3794735 155.987926,29.5759827 158.542546,29.6742373 C158.739055,29.6742373 158.739055,29.7724919 158.739055,29.8707465 C158.739055,30.4602741 158.247782,31.5410746 157.953018,31.5410746 C154.121089,31.934093 144.393884,32.425366 139.284645,32.916639 C138.400353,33.0148936 138.10559,33.2114028 138.10559,33.9974396 C138.007335,37.2398413 137.614317,55.9082149 137.614317,58.6593437 C137.614317,59.7401442 138.007335,59.9366534 138.695117,59.9366534 C142.920065,59.9366534 151.861233,59.5436351 156.675709,58.2663253 C157.658255,57.9715615 158.346037,57.4802885 158.739055,56.7925063 C160.704147,54.1396322 162.47273,51.3885034 164.143058,48.6373747 C164.241313,48.4408655 164.339567,48.4408655 164.437822,48.4408655 C164.83084,48.5391201 165.616877,49.2269023 165.518622,49.6199207 Z" id="path-5"></path>
        <filter x="-34.0%" y="-22.8%" width="168.0%" height="152.2%" filterUnits="objectBoundingBox" id="filter-6">
            <feOffset dx="0" dy="2" in="SourceAlpha" result="shadowOffsetOuter1"></feOffset>
            <feGaussianBlur stdDeviation="5" in="shadowOffsetOuter1" result="shadowBlurOuter1"></feGaussianBlur>
            <feColorMatrix values="0 0 0 0 0   0 0 0 0 0   0 0 0 0 0  0 0 0 0.69 0" type="matrix" in="shadowBlurOuter1"></feColorMatrix>
        </filter>
        <path d="M219.166866,17.0976488 L219.166866,17.1959034 C219.166866,24.859762 212.682063,29.9690011 207.27806,32.5236206 C211.797771,38.9101695 217.791302,50.1111937 221.721486,58.1680707 C222.114504,58.9541075 222.507523,59.3471259 223.195305,59.5436351 L227.125489,60.6244356 C227.616762,60.8209448 227.813271,61.4104724 227.813271,61.9017454 C227.813271,62.0982546 227.813271,62.1965092 227.518507,62.1965092 C224.963887,62.0982546 222.01625,62 216.513992,62 C212.780317,62 208.751879,62.0982546 204.330422,62.1965092 C204.035658,62.1965092 204.035658,62.0982546 204.035658,61.9017454 C204.035658,61.4104724 204.232167,60.8209448 204.625186,60.7226902 L208.55537,59.9366534 C209.439661,59.7401442 209.930934,59.3471259 209.341406,58.4628345 C204.821695,51.6832672 198.926419,43.6263902 193.227652,37.1415867 C192.932889,36.8468229 192.638125,36.6503137 192.245106,36.6503137 C191.753833,36.6503137 189.788741,36.5520591 189.002705,36.5520591 C188.90445,40.6787523 188.609686,54.2378868 188.609686,58.1680707 C188.609686,59.1506167 188.90445,59.4453805 189.592232,59.6418897 L193.915435,60.7226902 C194.210198,60.8209448 194.504962,61.4104724 194.504962,61.9017454 C194.504962,62.0982546 194.406708,62.1965092 194.210198,62.1965092 C191.45907,62.0982546 187.135867,62 182.223137,62 C177.212153,62 172.594187,62.0982546 170.53084,62.1965092 C170.236076,62.1965092 170.236076,62.0982546 170.236076,61.9017454 C170.236076,61.3122178 170.432586,60.7226902 170.727349,60.7226902 L175.050552,59.8383988 C175.738334,59.6418897 176.033098,59.2488713 176.033098,58.4628345 C176.033098,54.6309052 175.836589,36.9450775 175.836589,32.2288568 C175.738334,28.2986729 175.541825,9.72855391 175.345316,6.09313379 C175.247061,5.01233321 175.050552,4.52106022 174.461024,4.42280563 L170.53084,3.83327804 C170.236076,3.73502344 169.941313,3.14549585 169.941313,2.55596827 C169.941313,2.45771367 169.941313,2.26120447 170.236076,2.26120447 C175.148806,1.86818608 184.581248,1.0821493 194.111944,1.0821493 C211.503008,1.0821493 219.166866,6.97742517 219.166866,17.0976488 Z M191.360815,34.7834764 L191.45907,34.7834764 C198.631655,34.7834764 204.232167,27.6108907 204.232167,17.7854309 C204.232167,9.33553552 199.614201,2.75247746 192.932889,2.75247746 C190.967797,2.75247746 190.18176,3.04724125 190.18176,4.22629643 C189.690487,11.6936459 189.002705,31.4428201 189.002705,33.2114028 C189.002705,34.390458 189.493978,34.7834764 191.360815,34.7834764 Z" id="path-7"></path>
        <filter x="-27.6%" y="-22.9%" width="155.3%" height="152.4%" filterUnits="objectBoundingBox" id="filter-8">
            <feOffset dx="0" dy="2" in="SourceAlpha" result="shadowOffsetOuter1"></feOffset>
            <feGaussianBlur stdDeviation="5" in="shadowOffsetOuter1" result="shadowBlurOuter1"></feGaussianBlur>
            <feColorMatrix values="0 0 0 0 0   0 0 0 0 0   0 0 0 0 0  0 0 0 0.69 0" type="matrix" in="shadowBlurOuter1"></feColorMatrix>
        </filter>
        <path d="M264.561702,1.47516769 L283.32833,1.47516769 C283.52484,1.47516769 283.623094,1.57342229 283.623094,1.76993148 C283.623094,2.26120447 283.426585,2.94898666 283.131821,3.04724125 L281.068475,3.73502344 C280.184183,4.02978723 279.594656,4.42280563 278.906873,5.6018608 C274.681926,13.363974 264.463448,29.5759827 260.2385,37.1415867 C259.747227,37.9276235 259.452463,39.2049333 259.452463,40.5804977 C259.354208,44.5106816 259.255954,57.2837793 259.255954,58.6593437 C259.255954,59.4453805 259.648972,59.7401442 260.336754,59.9366534 L265.052975,60.7226902 C265.445994,60.8209448 265.740757,61.4104724 265.740757,61.9017454 C265.740757,62.0982546 265.740757,62.1965092 265.445994,62.1965092 C263.087883,62.0982546 258.175153,62 252.476387,62 C247.268893,62 242.257908,62.0982546 240.096307,62.1965092 C239.801543,62.1965092 239.801543,62.0982546 239.801543,61.9017454 C239.801543,61.4104724 239.998053,60.8209448 240.391071,60.7226902 L245.402056,59.7401442 C246.089838,59.6418897 246.286347,59.3471259 246.286347,58.2663253 C246.384602,54.5326506 245.991583,44.412427 245.893329,40.5804977 C245.795074,39.7944609 245.50031,38.8119149 245.205546,38.0258781 C240.784089,29.3794735 233.611504,17.0976488 227.617973,4.91407862 C227.32321,4.32455103 226.733682,3.83327804 226.242409,3.73502344 L223.49128,3.14549585 C223.196516,3.04724125 223.000007,2.35945907 223.000007,1.76993148 C223.000007,1.57342229 223.098262,1.47516769 223.393026,1.47516769 L251.002568,1.47516769 C251.199077,1.47516769 251.297331,1.57342229 251.297331,1.76993148 C251.297331,2.35945907 251.002568,3.04724125 250.707804,3.14549585 L246.089838,3.73502344 C245.402056,3.93153264 244.714273,4.32455103 245.009037,5.11058781 C248.546203,13.7569924 251.592095,21.3225965 255.817043,30.9515471 C256.210061,31.8358384 257.192607,34.1939488 257.782135,35.4712586 L258.175153,35.4712586 C258.862935,34.1939488 259.550718,32.916639 259.943736,31.934093 C263.972175,23.0911792 267.312831,14.9360476 269.965705,5.20884241 C270.260469,4.22629643 269.965705,3.93153264 269.179668,3.73502344 L264.954721,3.14549585 C264.463448,3.04724125 264.266938,2.26120447 264.266938,1.76993148 C264.266938,1.57342229 264.365193,1.47516769 264.561702,1.47516769 Z" id="path-9"></path>
        <filter x="-26.4%" y="-23.1%" width="152.8%" height="152.7%" filterUnits="objectBoundingBox" id="filter-10">
            <feOffset dx="0" dy="2" in="SourceAlpha" result="shadowOffsetOuter1"></feOffset>
            <feGaussianBlur stdDeviation="5" in="shadowOffsetOuter1" result="shadowBlurOuter1"></feGaussianBlur>
            <feColorMatrix values="0 0 0 0 0   0 0 0 0 0   0 0 0 0 0  0 0 0 0.69 0" type="matrix" in="shadowBlurOuter1"></feColorMatrix>
        </filter>
        <path d="M285.108056,1.47516769 L312.521089,1.47516769 C312.717598,1.47516769 312.717598,1.57342229 312.717598,1.67167688 C312.717598,2.35945907 312.521089,3.04724125 312.226325,3.04724125 L306.920577,3.83327804 C306.13454,4.02978723 305.839776,4.32455103 305.741522,5.4053516 C305.348503,10.6128453 304.85723,27.3161269 304.660721,31.6393292 C304.562467,36.4538045 304.071194,56.3994879 304.071194,59.0523621 C304.071194,59.9366534 304.660721,60.1331626 305.348503,60.1331626 C308.099632,60.1331626 319.005893,59.4453805 323.329095,58.2663253 C324.311641,57.8733069 325.490696,57.2837793 326.178478,56.2029787 L331.680736,47.4583195 C331.77899,47.2618103 331.877245,47.1635557 332.073754,47.2618103 C332.466772,47.3600649 333.154555,48.0478471 333.154555,48.3426109 L330.50168,61.6069816 C330.305171,62.1965092 330.206917,62.491273 329.322625,62.491273 C328.929607,62.491273 325.588951,62.3930184 319.988439,62.1965092 C314.486181,62.0982546 306.625813,62 296.996863,62 C293.164933,62 289.627768,62.0982546 285.009802,62.1965092 C284.813292,62.1965092 284.813292,62.0982546 284.813292,61.9017454 C284.813292,61.4104724 285.009802,60.7226902 285.304565,60.7226902 L289.726022,59.8383988 C290.413805,59.7401442 290.806823,59.4453805 290.806823,58.3645799 C290.905078,55.1221781 290.610314,37.0433321 290.610314,33.0148936 C290.610314,29.2812189 290.413805,8.45124414 290.217295,5.4053516 C290.217295,4.32455103 290.020786,4.02978723 289.136495,3.83327804 L285.304565,2.94898666 C285.009802,2.85073206 284.813292,2.35945907 284.813292,1.76993148 C284.813292,1.57342229 284.813292,1.47516769 285.108056,1.47516769 Z" id="path-11"></path>
        <filter x="-33.1%" y="-22.9%" width="166.2%" height="152.4%" filterUnits="objectBoundingBox" id="filter-12">
            <feOffset dx="0" dy="2" in="SourceAlpha" result="shadowOffsetOuter1"></feOffset>
            <feGaussianBlur stdDeviation="5" in="shadowOffsetOuter1" result="shadowBlurOuter1"></feGaussianBlur>
            <feColorMatrix values="0 0 0 0 0   0 0 0 0 0   0 0 0 0 0  0 0 0 0.69 0" type="matrix" in="shadowBlurOuter1"></feColorMatrix>
        </filter>
        <path d="M412.83705,1.95118644 L433.077497,1.95118644 C433.274006,1.95118644 433.274006,2.04944104 433.274006,2.24595023 C433.274006,2.83547782 433.077497,3.62151461 432.684479,3.7197692 L429.245568,4.40755139 C428.164767,4.70231518 427.968258,5.48835197 427.870004,6.56915254 C427.771749,9.51679048 428.066513,28.2834187 428.066513,32.0170934 C428.164767,36.6350595 428.361277,53.8296141 428.459531,58.5458348 C428.557786,59.6266354 428.85255,59.9213992 429.540332,60.1179084 L433.372261,61.198709 C433.667025,61.2969636 433.863534,62.0830004 433.863534,62.4760188 C433.863534,62.5742734 433.863534,62.6725279 433.667025,62.6725279 C431.701933,62.5742734 427.870004,62.4760188 422.760765,62.4760188 C417.160252,62.4760188 411.854504,62.5742734 409.791158,62.6725279 C409.496394,62.6725279 409.496394,62.5742734 409.496394,62.3777642 C409.496394,61.9847458 409.692903,61.2969636 409.987667,61.198709 L415.293415,60.0196538 C415.981197,59.8231446 416.079452,59.1353624 416.079452,58.251071 C415.981197,51.8645222 414.212614,26.0235629 413.819596,16.6893761 C413.721342,15.6085755 413.623087,14.3312658 413.623087,13.1522106 L412.935305,13.1522106 C412.444032,14.4295204 411.952759,15.7068301 411.657995,16.4928669 C406.84352,28.4799279 398.000606,50.7837216 393.775658,60.3144176 C393.186131,61.5917274 392.694858,61.8864912 390.238493,62.0830004 L387.290855,62.0830004 C386.897836,62.0830004 386.603072,61.9847458 386.504818,61.5917274 C382.476379,52.650559 373.928229,32.7048756 369.703282,21.8968698 C369.408518,21.110833 368.622481,19.5387595 368.327717,18.5562135 L367.73819,18.5562135 C367.639935,19.6370141 367.443426,21.110833 367.345171,21.9951244 C366.166116,31.624075 363.808006,53.7313595 363.316733,58.8405986 C363.218478,59.8231446 363.513242,60.216163 364.201024,60.3144176 L370.0963,61.198709 C370.391064,61.198709 370.685828,61.8864912 370.685828,62.4760188 C370.685828,62.5742734 370.685828,62.6725279 370.391064,62.6725279 C368.524226,62.5742734 365.380079,62.4760188 361.941168,62.4760188 C358.797021,62.4760188 356.340656,62.5742734 354.670328,62.6725279 C354.473819,62.6725279 354.473819,62.5742734 354.473819,62.3777642 C354.473819,61.9847458 354.768583,61.198709 355.063347,61.198709 L358.895276,60.3144176 C359.583058,60.216163 359.976076,59.9213992 359.976076,58.8405986 C360.074331,54.2226325 360.762113,36.8315687 360.860368,32.8031302 C360.958622,29.0694555 361.646405,8.7307537 361.646405,6.17613415 C361.54815,5.19358817 361.351641,4.70231518 360.27084,4.40755139 L356.242402,3.62151461 C355.947638,3.52326001 355.751129,2.73722322 355.751129,2.24595023 C355.751129,2.04944104 355.849383,1.95118644 356.144147,1.95118644 L376.875867,1.95118644 C377.268886,1.95118644 377.465395,2.14769564 377.563649,2.44245943 C381.395579,11.8749008 390.140238,37.7158601 393.579149,46.6570285 C393.873913,47.4430653 394.266931,48.6221204 394.856459,49.8994302 L395.445986,49.8994302 C396.035514,48.6221204 396.428532,47.1483015 396.723296,46.3622647 C400.456971,37.0280779 408.120829,14.4295204 412.247523,2.44245943 C412.345777,2.14769564 412.542286,1.95118644 412.83705,1.95118644 Z" id="path-13"></path>
        <filter x="-20.2%" y="-23.1%" width="140.3%" height="152.7%" filterUnits="objectBoundingBox" id="filter-14">
            <feOffset dx="0" dy="2" in="SourceAlpha" result="shadowOffsetOuter1"></feOffset>
            <feGaussianBlur stdDeviation="5" in="shadowOffsetOuter1" result="shadowBlurOuter1"></feGaussianBlur>
            <feColorMatrix values="0 0 0 0 0   0 0 0 0 0   0 0 0 0 0  0 0 0 0.69 0" type="matrix" in="shadowBlurOuter1"></feColorMatrix>
        </filter>
        <path d="M438.20484,43.611136 L438.20484,43.5128814 C438.20484,35.3577497 442.036769,27.8904003 448.128554,23.1741796 C453.139538,19.1457411 459.329578,16.9841399 466.993437,16.9841399 C471.12013,16.9841399 473.871259,17.4754129 475.443332,18.1631951 C475.738096,18.2614497 475.934605,18.5562135 475.934605,19.0474865 L476.524133,29.6589831 C476.524133,29.9537468 475.639841,30.4450198 475.345078,30.4450198 C475.148568,30.4450198 475.050314,30.4450198 474.952059,30.2485106 C473.47824,27.3991273 471.906167,24.2549802 470.530602,21.8968698 C470.137584,21.110833 469.646311,20.4230508 468.762019,19.8335233 C467.877728,19.1457411 466.600418,18.9492319 465.323109,18.9492319 C461.785943,18.9492319 458.543541,21.7986152 455.890667,27.4973819 C454.02383,31.3293112 452.943029,36.4385503 452.943029,42.0390624 C452.943029,53.5348503 458.93656,58.9388532 466.109145,58.9388532 C467.48471,58.9388532 469.449802,58.742344 471.12013,58.3493256 C473.871259,57.7597981 475.836351,56.9737613 477.604933,56.0894699 C477.801442,55.9912153 478.096206,56.3842337 478.096206,56.9737613 C478.096206,57.3667797 477.997952,57.6615435 477.703188,57.7597981 C475.836351,58.9388532 472.20093,60.8056906 467.877728,62.2795096 C466.2074,62.8690371 464.340563,63.2620555 459.722596,63.2620555 C447.735536,63.2620555 438.20484,58.0545618 438.20484,43.611136 Z" id="path-15"></path>
        <filter x="-40.1%" y="-30.3%" width="180.2%" height="169.1%" filterUnits="objectBoundingBox" id="filter-16">
            <feOffset dx="0" dy="2" in="SourceAlpha" result="shadowOffsetOuter1"></feOffset>
            <feGaussianBlur stdDeviation="5" in="shadowOffsetOuter1" result="shadowBlurOuter1"></feGaussianBlur>
            <feColorMatrix values="0 0 0 0 0   0 0 0 0 0   0 0 0 0 0  0 0 0 0.69 0" type="matrix" in="shadowBlurOuter1"></feColorMatrix>
        </filter>
        <path d="M0.126693112,35.864277 L0.126693112,35.7660224 C0.126693112,22.9929246 5.530696,13.855247 11.8189903,8.64775334 C18.0090299,3.63676884 25.9676524,0.689130905 35.3018392,0.689130905 C40.1163145,0.689130905 43.9482438,1.37691309 46.1098449,2.55596827 C46.5028633,2.75247746 46.6011179,3.04724125 46.6011179,3.53851424 L47.6819185,17.294158 C47.7801731,17.7854309 46.7976271,18.3749585 46.3063541,18.3749585 C46.2080995,18.3749585 46.1098449,18.3749585 45.9133357,18.0801947 C44.0464984,13.9535016 41.8848972,9.13902633 40.3128237,5.89662459 C39.9198053,5.11058781 39.4285323,4.42280563 38.8390047,3.93153264 C38.2494771,3.34200505 36.9721673,2.65422286 35.0070754,2.65422286 C31.1751461,2.65422286 26.9501983,4.81582402 23.5112874,8.64775334 C18.3037937,14.837793 15.6509196,23.4841976 15.6509196,34.5869672 C15.6509196,51.486758 24.9851064,58.3645799 33.9262748,58.3645799 C35.7931122,58.3645799 38.2494771,58.0698161 39.6250415,57.7750523 C42.3761702,57.2837793 45.127299,56.3012333 48.1731915,55.1221781 C48.4679553,55.0239235 48.6644645,55.4169419 48.6644645,56.3994879 C48.6644645,56.6942517 48.5662099,56.8907609 48.3697007,57.0872701 C46.1098449,58.2663253 40.9023512,60.6244356 37.2669311,61.7052362 C35.4983484,62.1965092 32.0594374,62.7860368 28.8170357,62.7860368 C13.2928092,62.7860368 0.126693112,55.6134511 0.126693112,35.864277 Z" id="path-17"></path>
        <filter x="-33.0%" y="-22.5%" width="165.9%" height="151.5%" filterUnits="objectBoundingBox" id="filter-18">
            <feOffset dx="0" dy="2" in="SourceAlpha" result="shadowOffsetOuter1"></feOffset>
            <feGaussianBlur stdDeviation="5" in="shadowOffsetOuter1" result="shadowBlurOuter1"></feGaussianBlur>
            <feColorMatrix values="0 0 0 0 0   0 0 0 0 0   0 0 0 0 0  0 0 0 0.69 0" type="matrix" in="shadowBlurOuter1"></feColorMatrix>
        </filter>
        <path d="M80.987198,62.7860368 L80.8889434,62.7860368 C63.4978796,62.7860368 53.1811468,52.8623224 53.1811468,34.390458 C53.1811468,14.837793 64.6769347,0.689130905 84.3278543,0.689130905 C101.718918,0.689130905 111.053105,12.4796827 111.053105,28.9864551 C111.053105,49.7181753 100.638118,62.7860368 80.987198,62.7860368 Z M82.7557807,60.9191994 L82.8540353,60.9191994 C91.8934583,60.9191994 95.4306239,48.9321385 95.4306239,30.6567833 C95.4306239,16.311612 90.9109124,2.45771367 82.1662532,2.45771367 C73.8146123,2.45771367 68.6071186,14.1500108 68.6071186,33.3096574 C68.6071186,47.6548287 73.9128669,60.9191994 82.7557807,60.9191994 Z" id="path-19"></path>
        <filter x="-27.6%" y="-22.5%" width="155.3%" height="151.5%" filterUnits="objectBoundingBox" id="filter-20">
            <feOffset dx="0" dy="2" in="SourceAlpha" result="shadowOffsetOuter1"></feOffset>
            <feGaussianBlur stdDeviation="5" in="shadowOffsetOuter1" result="shadowBlurOuter1"></feGaussianBlur>
            <feColorMatrix values="0 0 0 0 0   0 0 0 0 0   0 0 0 0 0  0 0 0 0.69 0" type="matrix" in="shadowBlurOuter1"></feColorMatrix>
        </filter>
        <path d="M166.280822,17.0976488 L166.280822,17.1959034 C166.280822,24.859762 159.796019,29.9690011 154.392016,32.5236206 C158.911727,38.9101695 164.905258,50.1111937 168.835442,58.1680707 C169.22846,58.9541075 169.621479,59.3471259 170.309261,59.5436351 L174.239445,60.6244356 C174.730718,60.8209448 174.927227,61.4104724 174.927227,61.9017454 C174.927227,62.0982546 174.927227,62.1965092 174.632463,62.1965092 C172.077843,62.0982546 169.130206,62 163.627948,62 C159.894273,62 155.865835,62.0982546 151.444378,62.1965092 C151.149614,62.1965092 151.149614,62.0982546 151.149614,61.9017454 C151.149614,61.4104724 151.346123,60.8209448 151.739142,60.7226902 L155.669326,59.9366534 C156.553617,59.7401442 157.04489,59.3471259 156.455362,58.4628345 C151.935651,51.6832672 146.040375,43.6263902 140.341608,37.1415867 C140.046845,36.8468229 139.752081,36.6503137 139.359062,36.6503137 C138.867789,36.6503137 136.902697,36.5520591 136.116661,36.5520591 C136.018406,40.6787523 135.723642,54.2378868 135.723642,58.1680707 C135.723642,59.1506167 136.018406,59.4453805 136.706188,59.6418897 L141.029391,60.7226902 C141.324154,60.8209448 141.618918,61.4104724 141.618918,61.9017454 C141.618918,62.0982546 141.520664,62.1965092 141.324154,62.1965092 C138.573026,62.0982546 134.249823,62 129.337093,62 C124.326109,62 119.708143,62.0982546 117.644796,62.1965092 C117.350032,62.1965092 117.350032,62.0982546 117.350032,61.9017454 C117.350032,61.3122178 117.546542,60.7226902 117.841305,60.7226902 L122.164508,59.8383988 C122.85229,59.6418897 123.147054,59.2488713 123.147054,58.4628345 C123.147054,54.6309052 122.950545,36.9450775 122.950545,32.2288568 C122.85229,28.2986729 122.655781,9.72855391 122.459272,6.09313379 C122.361017,5.01233321 122.164508,4.52106022 121.57498,4.42280563 L117.644796,3.83327804 C117.350032,3.73502344 117.055269,3.14549585 117.055269,2.55596827 C117.055269,2.45771367 117.055269,2.26120447 117.350032,2.26120447 C122.262762,1.86818608 131.695204,1.0821493 141.2259,1.0821493 C158.616964,1.0821493 166.280822,6.97742517 166.280822,17.0976488 Z M138.474771,34.7834764 L138.573026,34.7834764 C145.745611,34.7834764 151.346123,27.6108907 151.346123,17.7854309 C151.346123,9.33553552 146.728157,2.75247746 140.046845,2.75247746 C138.081753,2.75247746 137.295716,3.04724125 137.295716,4.22629643 C136.804443,11.6936459 136.116661,31.4428201 136.116661,33.2114028 C136.116661,34.390458 136.607934,34.7834764 138.474771,34.7834764 Z" id="path-21"></path>
        <filter x="-27.6%" y="-22.9%" width="155.3%" height="152.4%" filterUnits="objectBoundingBox" id="filter-22">
            <feOffset dx="0" dy="2" in="SourceAlpha" result="shadowOffsetOuter1"></feOffset>
            <feGaussianBlur stdDeviation="5" in="shadowOffsetOuter1" result="shadowBlurOuter1"></feGaussianBlur>
            <feColorMatrix values="0 0 0 0 0   0 0 0 0 0   0 0 0 0 0  0 0 0 0.69 0" type="matrix" in="shadowBlurOuter1"></feColorMatrix>
        </filter>
        <path d="M225.545157,17.0976488 L225.545157,17.1959034 C225.545157,24.859762 219.060353,29.9690011 213.656351,32.5236206 C218.176062,38.9101695 224.169592,50.1111937 228.099776,58.1680707 C228.492795,58.9541075 228.885813,59.3471259 229.573595,59.5436351 L233.503779,60.6244356 C233.995052,60.8209448 234.191561,61.4104724 234.191561,61.9017454 C234.191561,62.0982546 234.191561,62.1965092 233.896798,62.1965092 C231.342178,62.0982546 228.39454,62 222.892283,62 C219.158608,62 215.130169,62.0982546 210.708713,62.1965092 C210.413949,62.1965092 210.413949,62.0982546 210.413949,61.9017454 C210.413949,61.4104724 210.610458,60.8209448 211.003476,60.7226902 L214.93366,59.9366534 C215.817952,59.7401442 216.309225,59.3471259 215.719697,58.4628345 C211.199986,51.6832672 205.30471,43.6263902 199.605943,37.1415867 C199.311179,36.8468229 199.016415,36.6503137 198.623397,36.6503137 C198.132124,36.6503137 196.167032,36.5520591 195.380995,36.5520591 C195.282741,40.6787523 194.987977,54.2378868 194.987977,58.1680707 C194.987977,59.1506167 195.282741,59.4453805 195.970523,59.6418897 L200.293725,60.7226902 C200.588489,60.8209448 200.883253,61.4104724 200.883253,61.9017454 C200.883253,62.0982546 200.784998,62.1965092 200.588489,62.1965092 C197.83736,62.0982546 193.514158,62 188.601428,62 C183.590444,62 178.972477,62.0982546 176.909131,62.1965092 C176.614367,62.1965092 176.614367,62.0982546 176.614367,61.9017454 C176.614367,61.3122178 176.810876,60.7226902 177.10564,60.7226902 L181.428842,59.8383988 C182.116625,59.6418897 182.411388,59.2488713 182.411388,58.4628345 C182.411388,54.6309052 182.214879,36.9450775 182.214879,32.2288568 C182.116625,28.2986729 181.920115,9.72855391 181.723606,6.09313379 C181.625352,5.01233321 181.428842,4.52106022 180.839315,4.42280563 L176.909131,3.83327804 C176.614367,3.73502344 176.319603,3.14549585 176.319603,2.55596827 C176.319603,2.45771367 176.319603,2.26120447 176.614367,2.26120447 C181.527097,1.86818608 190.959538,1.0821493 200.490234,1.0821493 C217.881298,1.0821493 225.545157,6.97742517 225.545157,17.0976488 Z M197.739106,34.7834764 L197.83736,34.7834764 C205.009946,34.7834764 210.610458,27.6108907 210.610458,17.7854309 C210.610458,9.33553552 205.992492,2.75247746 199.311179,2.75247746 C197.346087,2.75247746 196.56005,3.04724125 196.56005,4.22629643 C196.068777,11.6936459 195.380995,31.4428201 195.380995,33.2114028 C195.380995,34.390458 195.872268,34.7834764 197.739106,34.7834764 Z" id="path-23"></path>
        <filter x="-27.6%" y="-22.9%" width="155.3%" height="152.4%" filterUnits="objectBoundingBox" id="filter-24">
            <feOffset dx="0" dy="2" in="SourceAlpha" result="shadowOffsetOuter1"></feOffset>
            <feGaussianBlur stdDeviation="5" in="shadowOffsetOuter1" result="shadowBlurOuter1"></feGaussianBlur>
            <feColorMatrix values="0 0 0 0 0   0 0 0 0 0   0 0 0 0 0  0 0 0 0.69 0" type="matrix" in="shadowBlurOuter1"></feColorMatrix>
        </filter>
        <path d="M270.939993,1.47516769 L289.706621,1.47516769 C289.90313,1.47516769 290.001385,1.57342229 290.001385,1.76993148 C290.001385,2.26120447 289.804876,2.94898666 289.510112,3.04724125 L287.446765,3.73502344 C286.562474,4.02978723 285.972946,4.42280563 285.285164,5.6018608 C281.060216,13.363974 270.841738,29.5759827 266.61679,37.1415867 C266.125517,37.9276235 265.830754,39.2049333 265.830754,40.5804977 C265.732499,44.5106816 265.634245,57.2837793 265.634245,58.6593437 C265.634245,59.4453805 266.027263,59.7401442 266.715045,59.9366534 L271.431266,60.7226902 C271.824284,60.8209448 272.119048,61.4104724 272.119048,61.9017454 C272.119048,62.0982546 272.119048,62.1965092 271.824284,62.1965092 C269.466174,62.0982546 264.553444,62 258.854677,62 C253.647184,62 248.636199,62.0982546 246.474598,62.1965092 C246.179834,62.1965092 246.179834,62.0982546 246.179834,61.9017454 C246.179834,61.4104724 246.376343,60.8209448 246.769362,60.7226902 L251.780346,59.7401442 C252.468128,59.6418897 252.664638,59.3471259 252.664638,58.2663253 C252.762892,54.5326506 252.369874,44.412427 252.271619,40.5804977 C252.173365,39.7944609 251.878601,38.8119149 251.583837,38.0258781 C247.16238,29.3794735 239.989794,17.0976488 233.996264,4.91407862 C233.7015,4.32455103 233.111973,3.83327804 232.6207,3.73502344 L229.869571,3.14549585 C229.574807,3.04724125 229.378298,2.35945907 229.378298,1.76993148 C229.378298,1.57342229 229.476552,1.47516769 229.771316,1.47516769 L257.380858,1.47516769 C257.577367,1.47516769 257.675622,1.57342229 257.675622,1.76993148 C257.675622,2.35945907 257.380858,3.04724125 257.086094,3.14549585 L252.468128,3.73502344 C251.780346,3.93153264 251.092564,4.32455103 251.387328,5.11058781 C254.924493,13.7569924 257.970386,21.3225965 262.195334,30.9515471 C262.588352,31.8358384 263.570898,34.1939488 264.160426,35.4712586 L264.553444,35.4712586 C265.241226,34.1939488 265.929008,32.916639 266.322027,31.934093 C270.350465,23.0911792 273.691122,14.9360476 276.343996,5.20884241 C276.638759,4.22629643 276.343996,3.93153264 275.557959,3.73502344 L271.333011,3.14549585 C270.841738,3.04724125 270.645229,2.26120447 270.645229,1.76993148 C270.645229,1.57342229 270.743484,1.47516769 270.939993,1.47516769 Z" id="path-25"></path>
        <filter x="-26.4%" y="-23.1%" width="152.8%" height="152.7%" filterUnits="objectBoundingBox" id="filter-26">
            <feOffset dx="0" dy="2" in="SourceAlpha" result="shadowOffsetOuter1"></feOffset>
            <feGaussianBlur stdDeviation="5" in="shadowOffsetOuter1" result="shadowBlurOuter1"></feGaussianBlur>
            <feColorMatrix values="0 0 0 0 0   0 0 0 0 0   0 0 0 0 0  0 0 0 0.69 0" type="matrix" in="shadowBlurOuter1"></feColorMatrix>
        </filter>
    </defs>
    <g id="Page-1" stroke="none" stroke-width="1" fill="none" fill-rule="evenodd">
        <g id="sheryl-mccorry-home-03" transform="translate(-329.000000, -183.000000)">
            <g id="sheryl" transform="translate(338.000000, 190.000000)">
                <g id="Group" transform="translate(0.000000, 0.476019)">
                    <g id="S">
                        <use fill="black" fill-opacity="1" filter="url(#filter-2)" xlink:href="#path-1"></use>
                        <use fill="#FFFFFF" fill-rule="evenodd" xlink:href="#path-1"></use>
                    </g>
                    <g id="H">
                        <use fill="black" fill-opacity="1" filter="url(#filter-4)" xlink:href="#path-3"></use>
                        <use fill="#FFFFFF" fill-rule="evenodd" xlink:href="#path-3"></use>
                    </g>
                    <g id="E">
                        <use fill="black" fill-opacity="1" filter="url(#filter-6)" xlink:href="#path-5"></use>
                        <use fill="#FFFFFF" fill-rule="evenodd" xlink:href="#path-5"></use>
                    </g>
                    <g id="R">
                        <use fill="black" fill-opacity="1" filter="url(#filter-8)" xlink:href="#path-7"></use>
                        <use fill="#FFFFFF" fill-rule="evenodd" xlink:href="#path-7"></use>
                    </g>
                    <g id="Y">
                        <use fill="black" fill-opacity="1" filter="url(#filter-10)" xlink:href="#path-9"></use>
                        <use fill="#FFFFFF" fill-rule="evenodd" xlink:href="#path-9"></use>
                    </g>
                    <g id="L">
                        <use fill="black" fill-opacity="1" filter="url(#filter-12)" xlink:href="#path-11"></use>
                        <use fill="#FFFFFF" fill-rule="evenodd" xlink:href="#path-11"></use>
                    </g>
                </g>
                <g id="M">
                    <use fill="black" fill-opacity="1" filter="url(#filter-14)" xlink:href="#path-13"></use>
                    <use fill="#FFFFFF" fill-rule="evenodd" xlink:href="#path-13"></use>
                </g>
                <g id="c">
                    <use fill="black" fill-opacity="1" filter="url(#filter-16)" xlink:href="#path-15"></use>
                    <use fill="#FFFFFF" fill-rule="evenodd" xlink:href="#path-15"></use>
                </g>
                <g id="Group" transform="translate(484.050847, 0.476019)">
                    <g id="C">
                        <use fill="black" fill-opacity="1" filter="url(#filter-18)" xlink:href="#path-17"></use>
                        <use fill="#FFFFFF" fill-rule="evenodd" xlink:href="#path-17"></use>
                    </g>
                    <g id="O">
                        <use fill="black" fill-opacity="1" filter="url(#filter-20)" xlink:href="#path-19"></use>
                        <use fill="#FFFFFF" fill-rule="evenodd" xlink:href="#path-19"></use>
                    </g>
                    <g id="R">
                        <use fill="black" fill-opacity="1" filter="url(#filter-22)" xlink:href="#path-21"></use>
                        <use fill="#FFFFFF" fill-rule="evenodd" xlink:href="#path-21"></use>
                    </g>
                    <g id="R">
                        <use fill="black" fill-opacity="1" filter="url(#filter-24)" xlink:href="#path-23"></use>
                        <use fill="#FFFFFF" fill-rule="evenodd" xlink:href="#path-23"></use>
                    </g>
                    <g id="Y">
                        <use fill="black" fill-opacity="1" filter="url(#filter-26)" xlink:href="#path-25"></use>
                        <use fill="#FFFFFF" fill-rule="evenodd" xlink:href="#path-25"></use>
                    </g>
                </g>
            </g>
        </g>
    </g>
</svg>